<?xml version="1.0" encoding="UTF-8"?>
<svg id="Calque_1" data-name="Calque 1" xmlns="http://www.w3.org/2000/svg" viewBox="0 0 13.34 19.89">
  <defs>
    <style>
      .cls-1 {
        opacity: .75;
      }

      .cls-1, .cls-2, .cls-3 {
        fill: #fff;
        fill-rule: evenodd;
        stroke-width: 0px;
      }

      .cls-3 {
        opacity: .5;
      }
    </style>
  </defs>
  <path class="cls-3" d="m6.49,13.04c.2-.2.51-.2.71,0,0,0,0,0,0,0l6,6c.2.2.2.51,0,.71s-.51.2-.71,0l-5.65-5.65-5.65,5.65c-.2.2-.51.2-.71,0-.2-.2-.2-.51,0-.71l6-6Z"/>
  <path class="cls-1" d="m6.15,6.61c.2-.2.51-.2.71,0,0,0,0,0,0,0l6,6c.2.2.2.51,0,.71s-.51.2-.71,0l-5.65-5.65L.85,13.32c-.2.2-.51.2-.71,0-.2-.2-.2-.51,0-.71l6-6Z"/>
  <path class="cls-2" d="m6.15.15c.2-.2.51-.2.71,0,0,0,0,0,0,0l6,6c.2.2.2.51,0,.71s-.51.2-.71,0L6.5,1.21.85,6.85c-.2.2-.51.2-.71,0-.2-.2-.2-.51,0-.71L6.15.15Z"/>
</svg>