<?xml version="1.0" encoding="UTF-8"?>
<svg id="Calque_2" data-name="Calque 2" xmlns="http://www.w3.org/2000/svg" viewBox="0 0 143.95 144.06">
  <defs>
    <style>
      .cls-1 {
        fill: #fff;
        stroke-width: 0px;
      }

      .cls-2 {
        opacity: .21;
      }
    </style>
  </defs>
  <g id="Calque_1-2" data-name="Calque 1">
    <path class="cls-1" d="m72.9,23.13c27.24,0,49.39,22.16,49.39,49.39s-22.16,49.39-49.39,49.39-49.39-22.16-49.39-49.39,22.16-49.39,49.39-49.39m0-.61c-27.61,0-50,22.39-50,50s22.39,50,50,50,50-22.39,50-50-22.39-50-50-50h0Z"/>
    <g>
      <circle class="cls-1" cx="131.9" cy="29.53" r="8.77"/>
      <path class="cls-1" d="m131.9,20.98c4.71,0,8.55,3.83,8.55,8.55s-3.83,8.55-8.55,8.55-8.55-3.83-8.55-8.55,3.83-8.55,8.55-8.55m0-.45c-4.97,0-9,4.03-9,9s4.03,9,9,9,9-4.03,9-9-4.03-9-9-9h0Z"/>
    </g>
    <g class="cls-2">
      <path class="cls-1" d="m143.95,72.03c.43,28.4-17.74,55.71-44.04,66.41C52.63,158.24.11,123.26,0,72.03.13,20.79,52.62-14.18,99.9,5.62c26.31,10.7,44.47,38,44.04,66.4h0Zm-.1,0c.31-28.3-17.86-55.45-44.11-66C52.87-13.4.94,21.28,1,72.03c-.05,50.75,51.87,85.43,98.74,66,26.25-10.56,44.43-37.7,44.11-66h0Z"/>
    </g>
  </g>
</svg>