<?xml version="1.0" encoding="UTF-8"?>
<svg id="Calque_2" data-name="Calque 2" xmlns="http://www.w3.org/2000/svg" viewBox="0 0 115 100">
  <defs>
    <style>
      .cls-1 {
        fill: #fff;
        stroke-width: 0px;
      }
    </style>
  </defs>
  <g id="Calque_1-2" data-name="Calque 1">
    <path class="cls-1" d="m60.5,3.61c26.41,0,47.89,21.49,47.89,47.89s-21.49,47.89-47.89,47.89S12.61,77.91,12.61,51.5,34.09,3.61,60.5,3.61m0-.61C33.71,3,12,24.71,12,51.5s21.71,48.5,48.5,48.5,48.5-21.71,48.5-48.5S87.29,3,60.5,3h0Z"/>
    <g>
      <circle class="cls-1" cx="5" cy="86" r="4.77"/>
      <path class="cls-1" d="m5,81.45c2.51,0,4.55,2.04,4.55,4.55s-2.04,4.55-4.55,4.55-4.55-2.04-4.55-4.55,2.04-4.55,4.55-4.55m0-.45c-2.76,0-5,2.24-5,5s2.24,5,5,5,5-2.24,5-5-2.24-5-5-5h0Z"/>
    </g>
    <g>
      <circle class="cls-1" cx="110" cy="5" r="4.77"/>
      <path class="cls-1" d="m110,.45c2.51,0,4.55,2.04,4.55,4.55s-2.04,4.55-4.55,4.55-4.55-2.04-4.55-4.55,2.04-4.55,4.55-4.55m0-.45c-2.76,0-5,2.24-5,5s2.24,5,5,5,5-2.24,5-5-2.24-5-5-5h0Z"/>
    </g>
  </g>
</svg>