<?xml version="1.0" encoding="UTF-8"?>
<svg id="Calque_2" data-name="Calque 2" xmlns="http://www.w3.org/2000/svg" viewBox="0 0 87.79 86.63">
  <defs>
    <style>
      .cls-1 {
        fill: #fff;
        stroke-width: 0px;
      }
    </style>
  </defs>
  <g id="Calque_1-2" data-name="Calque 1">
    <g>
      <path class="cls-1" d="m77.55,47.62c0,.13.03.05,0-.29l-.05-.25.04.54Z"/>
      <path class="cls-1" d="m77.49,45.27c-.04-.41-.1-.88-.12-.61.05.44.05.44.11.94.02.35.02.61,0,.55.02.12.02.54.05.73,0-.45-.02-1.03-.08-1.63,0-.13.02,0,.03.02Z"/>
      <path class="cls-1" d="m61.64,16.1l.16.16s-.1-.1-.16-.16Z"/>
      <path class="cls-1" d="m41.8,8.71c.16,0,.24-.03.25-.06-.15.01-.28.03-.25.06Z"/>
      <path class="cls-1" d="m38.11,8.25c.08,0,.15,0,.22.01-.08-.03-.17-.04-.22-.01Z"/>
      <path class="cls-1" d="m61.64,16.1l-.41-.4c-.07.04.2.22.41.4Z"/>
      <path class="cls-1" d="m76.82,40.61c.02.11.04.21.06.3l-.05-.28v-.02Z"/>
      <path class="cls-1" d="m68.6,22.41l.11.13s.1.05.14.07l-.26-.2Z"/>
      <path class="cls-1" d="m72.7,28.35c-.08-.14-.19-.14-.26-.18.08.06.16.15.24.27.02,0,.02-.04.02-.1Z"/>
      <path class="cls-1" d="m76.66,39.01l.06.19c-.01-.05-.04-.14-.06-.19Z"/>
      <path class="cls-1" d="m65.05,18.64s0-.06,0-.09c-.01.02,0,.05,0,.09Z"/>
      <path class="cls-1" d="m76.6,55.84s0,0,0,0c0-.04,0-.05,0,0Z"/>
      <path class="cls-1" d="m77.62,47.62v.12s0,.02.01.02v-.14Z"/>
      <path class="cls-1" d="m31.29,8.59s.02,0,.03,0c.17-.06.07-.04-.03,0Z"/>
      <path class="cls-1" d="m.82,55.93c.01-.72.53,1.05.47-.01-.06.12-.57-.86-.47.01Z"/>
      <path class="cls-1" d="m76.8,40.43l-.05-.29c.02.13.04.22.05.29Z"/>
      <path class="cls-1" d="m1.29,55.91h0s0-.11,0-.11c0,.05,0,.07,0,.11Z"/>
      <path class="cls-1" d="m16.9,14.86c.05.02.13.02.2,0-.02-.02-.07-.03-.2,0Z"/>
      <path class="cls-1" d="m27.55,10.14l-.28.06c.12-.01.2-.04.28-.06Z"/>
      <path class="cls-1" d="m12.47,19c-.13.09-.2.1-.33.27.02,0,.05,0,.07-.02.03-.08.09-.16.26-.25Z"/>
      <path class="cls-1" d="m8.27,23.65s.07-.04.11-.06c.03-.05.07-.11.11-.17l-.22.23Z"/>
      <path class="cls-1" d="m68.34,72.29c.1-.09.17-.14.23-.18-.09.05.51-.62-.23.18Z"/>
      <path class="cls-1" d="m76.84,40.6s-.03-.08-.05-.18c.01.07.02.14.03.2,0,.02.02.02.01-.02Z"/>
      <path class="cls-1" d="m13.8,20.78l-.73.6c.22-.16.48-.37.73-.6Z"/>
      <path class="cls-1" d="m28.78,83.89l.22.04c-.08-.03-.16-.04-.22-.04Z"/>
      <path class="cls-1" d="m11.2,23.45c-.19.06-.35.16-.51.27-.01.04-.03.09-.02.13l.53-.39Z"/>
      <path class="cls-1" d="m68.57,72.11h0s0,0,0,0Z"/>
      <path class="cls-1" d="m72.19,66.85c-.49.79-.19.39-.27.57-.57.95-.3.42-.52.72-.17.29-.32.56-.46.81-.15.24-.31.45-.46.65-.03.03-.09.1-.03,0-.41.6-1.3,1.73-1.79,2.43-.05.04-.07.06-.09.07.12-.08.16-.08.16-.04-.28.31-.49.6-.63.68.17-.19.17-.21.24-.31l-.28.33c-.31.25.39-.45.35-.48-.56.63-1.19,1.4-1.64,1.87-.14.05,1.01-1.13.38-.54l.7-.72c-.6.5.42-.44-.14,0-.93.93-.95,1.14-1.93,2.02-.19.23.12-.02-.08.2-1.35,1.31-1.24.83-2.19,1.82-.24.26-.29.42-1.12.96l.21-.28c-1.04.74-.5.55-1.62,1.28.17-.18.79-.62.63-.52-.75.44-.46.41-1,.81-.06,0-.11,0-.17,0-.57.36-1.18.74-1.8,1.13-.62.39-1.23.83-1.93,1.13.06-.07.28-.21-.06-.09-.85.42-1.76.85-2.68,1.25-.95.31-1.9.61-2.77.87l-.62.35c-.15.05-.31.02-.14-.04-.7.12-.01.08-.33.21-.39.11-.54.06-.3-.04-.59.2-1.45.47-2.32.71-.43.14-.88.22-1.3.27-.42.05-.81.09-1.15.1l.25-.08c-1.02.09-1.11.44-2.07.46l.18-.05c-1.12.08-2.29.1-3.4.17-.28.01-.55.03-.82.03-.27-.02-.53-.04-.78-.06-.5-.05-.98-.11-1.4-.19-.34.21-2.19-.22-2.36,0-1.24-.35-.87-.35-2.62-.74-.47-.07-.73.05-1.32-.06l.02-.17-.82-.03-.36-.31-.55-.1c.21.07.43.19.39.23-.43-.07-.93-.24-1.33-.39-.39-.18-.66-.37-.65-.41l-1.96-.57c.07-.05.4.05.67.1-1.09-.21-.12-.25-1.11-.44.11.08-.11.07-.14.1-.43-.25-1.43-.8-2.21-1.11l.2-.04c-1.37-.63-2.81-1.48-4.26-2.37.48.37.24.49-.2.25l-.06-.27c-.35-.06.4.34-.25.12-.51-.39-.21-.44.11-.28l-.66-.41c0-.08.16,0,.24-.03-.33-.09-.93-.97-1.43-1.07v-.08c-.34-.25-.63-.47-.89-.67-.26-.2-.47-.41-.69-.59-.43-.38-.84-.73-1.35-1.19-.15.12-.52-.28-.93-.45-.64-.8-1.28-1.74-2.11-2.64-.62-.6-.28-.09-.61-.32.1-.16-.64-1.14-.16-.7-.45-.58-.74-.95-1.06-1.36-.17-.2-.34-.41-.55-.66-.19-.26-.4-.57-.67-.95.04.21.13.43.02.36-.2-.28-.33-.7-.23-.71l.06.07c-.65-.83-1.2-1.91-1.54-3.03-.19-.55-.38-1.08-.59-1.55-.1-.24-.21-.46-.33-.67-.09-.22-.2-.42-.31-.59l.05.08-.78-1.55c-.24-.76.3.4.21-.19-.23-.41-.41-.79-.55-1.15-.11-.37-.19-.72-.26-1.06-.14-.68-.26-1.31-.56-2.03.09-.63,0-1.66-.21-2.74-.09-.54-.21-1.09-.27-1.61-.02-.52,0-1.01.07-1.41l-.14.1c-.16-.4.06-.5.08-.8-.11.05-.11.45-.19.2-.24-1.74-.01-3.54.17-5.33.12-.89.37-1.77.55-2.65l.29-1.31c.14-.43.27-.85.4-1.27.37-1.23-.57-.91.2-2.41l.15.53c.21-1.3.75-2.54,1.21-3.79.59-1.2,1.18-2.38,1.64-3.59-.02.16.05.21-.06.43.44-.37,1.06-1.7.9-1.81.23-.33.19,0,.4-.15.4-.38.46-1.33.83-1.42.06-.02-.04.16-.07.25.12-.35,1.02-1.29.6-1.18.69-.68,1-1.56,1.63-2.04.11-.57,1.23-1.11,1.02-1.52.29.36,1.38-1.01,1.73-1.54-.06.23.49-.25.44.05.51-.46.93-.95.68-1.04,1.26-.47,1.74-1.96,2.73-1.84.38-.35.75-.7,1.12-1.04.4-.3.79-.59,1.18-.88.4-.29.79-.57,1.17-.85l.58-.41.61-.34c.08.24-.4.43-.8.71-.42.27-.82.53-.66.72.35-.27.66-.52.94-.77.3-.22.58-.42.87-.63.58-.4,1.17-.77,1.99-1.1.43-.14-.15.3-.26.44.74-.51,1.57-.72,2.34-1.02.79-.26,1.51-.62,2.24-.9,0,.04-.14.13-.29.21.3-.09.71-.11.62-.31l-.28.13c-.57-.17,1.02-.93,1.04-1.1-.36.72,1.56-.24.92.72.19-.09.41-.25.34-.38.3-.04.41.02.15.26,1.04-.4.63-.47,1.62-.65.01.1-.18.17-.26.31.47-.27.95-.55,1.8-.6-.04.07.07.13-.19.17,1.43-.31,2.44-.76,4.07-.68-.46.46.55.11.64.48.29-.06.57-.09.86-.11l-.35-.2c.76.04,1.44-.2,2.09-.05l-.57.13h1.43s-.8-.18-.8-.18c.79-.15-.05-.47.96-.32-.21.03.77.02,1.14.32h0c.39-.06.79-.12,1.34.05.13.13-.18.37-.09.46.41-.23,1.78.15,2.3-.03-.17.03-.21.21-.17.26l.35-.15c.33.16.37.21.28.33,1.02.3-.23-.51.96-.02-.1,0-.06.04-.27.02,1.21.4,2.43.43,3.49.98.22.42-.98-.27-.7.13.8.25,1.65.44,2.49.66.84.22,1.62.59,2.35.95l-.26-.16c.39-.27,1.02.69,1.83.89-.19-.08-.34.07-.27.05.92.63,2.02,1.04,3.52,1.86l-.22-.05c.48.46,1.37,1.06,1.93,1.51.22.06.54.31.42.06.18.21.38.4.57.58.18.2.38.38.57.56.39.35.8.67,1.2.98.4.32.82.61,1.16.97.34.36.66.74.93,1.15-.16-.17-.42-.36-.3-.23l1.18,1.17c0-.17-.1-.2-.27-.52.19.11.55.43.83.74-.57-.5-.11.1.03.4,0-.06.09,0,.1-.04.38.81.25-.01.87,1.02l-.08-.02c.29.34.59.63.87,1.02.03.22-.33-.35-.42-.32.41.53.99.94,1.2,1.53-.17-.23-.38-.58-.59-.79.31.59.33.67.59,1.09l-.02-.04.56.99-.13-.26c.33.29.56.66.81,1.05.12.2.25.4.39.62.12.23.25.46.4.7-.6-.94-.15-.13-.26-.16.11.27.28.68.2.58.3.45.35.82.78,1.46,0,.04.25.52.14.43.33.62-.03-.16.02-.13.3.45.47,1.07.7,1.72.23.65.48,1.36.8,2.07.42,1.27.51,1.5.85,2.7.08.41-.14-.32-.14-.32.13.66.31,1.14.43,1.77-.03-.13-.02,0,0,.2.08.5.1.33.19,1-.03-.11-.08-.25-.13-.5.11.59.22,1.18.33,1.79,0,.17-.09-.37-.14-.58.12.69.32,1.79.32,2.01v-.45c0,.26-.03.13-.06-.05-.12-.59-.12-.86-.12-.89l.08.44c0-.46-.28-1.77-.42-2.65l.12.36-.19-.9c-.02-.19,0-.33.08.1-.09-.64-.15-.55-.24-1.09,0-.06,0-.03.02.02l-.18-.6c.04.12.02-.11.11.26-.23-1.11-.5-1.75-.55-2.18l.03.09c-.48-1.49-.09-.13-.54-1.22l-.12-.8-.12-.12c-.05-.15-.16-.45-.11-.41-.25-.55,0,.11-.15-.2-.11-.37-.28-.88-.46-1.3-.2-.41-.36-.76-.34-.87-.18-.23.28.69-.12-.04.03-.27-.44-.85-.68-1.52.17.16.42.79.17.11-.15-.16-.29-.48-.43-.82-.14-.34-.33-.68-.49-.94-.12.04-.71-1.1-1.27-1.94.12,0-1.02-1.6-1.53-2.39h.04c-.25-.03-.75-.87-1.26-1.36.09-.04.22.02.49.29-.13-.18-.29-.33-.43-.5-.15-.08-.31-.22-.61-.53l.21.04c-.6-.65-1.27-1.25-2.02-2.12-.15.06.39.88-.56.15.02-.08.08-.21.33-.02-.08-.06-.31-.2-.44-.36l.44.23c-.34-.39-.27-.11-.57-.39.08-.08-.17-.27-.07-.29.08.06.23.28.38.36-.33-.33-.7-.77-.78-.96-.01.08-.1.11-.36-.11-.65-.6-.13-.31-.47-.71-.2-.1-.59-.51-.72-.37-.21-.16-.19-.26-.24-.36-.41-.22-1.71-1.29-1.43-.81l.09.08s-.04-.02-.06-.04h0s0,0,0,0c-.33-.19-.64-.4-.95-.63-.32-.22-.64-.43-.96-.65-.64-.44-1.27-.91-1.92-1.26l.04-.06c-.8-.39-1.79-.85-2.43-.99-.24-.11-.5-.4-.36-.44-.64-.23-.72-.23-1.6-.69.7.11-.17-.2.7.15-.8-.38-.95-.58-1.92-.7.38-.09-.54-.5-.95-.59l.53.37c-.46-.14-.84-.3-1.23-.47l.3-.2c-.82-.46-1.68-.5-2.45-.59-.78-.06-1.47-.2-2.11-.6-.52.14.95.31.47.49-.81-.17-1.61-.76-1.87-.8-1.13-.35-1.12.25-2.3.02.14.12.25.44-.64.5-.82-.09-.99-.54-.46-.61.2,0,.3.04.29.08.27-.03.63-.06.31-.2l-.12.11c-.41-.14-1.57-.2-1.29-.37-.64.08-.28.18.19.26-1.08-.21-1.69-.16-2.8-.19.18.06.34.19.17.2-1.63-.07-.71.26-1.8.36-.64-.15.19-.45-.9-.24-.69-.09-.17-.31.09-.42-.25.07-.5.1-.73.11-.23.03-.46.03-.67.03-.43-.01-.81-.06-1.1-.04l.52-.18c-.31.1-.58.14-.84.18l.34.2c-.32,0-.59.04-.6-.06-.3.21.31.36-.29.68-.43-.05-1.23.3-1.43.04,1.32-.13-.21-.31.89-.54-.21.07-.47.11-.79.12-.05-.02.03-.08.11-.11-1.3,0-.49.5-1.77.81.12-.22-.38-.26-.58-.17.52-.13.32.24-.11.49-.85.07-.85.33-1.28.42l.5-.06c-.11.21-.52.29-1.04.56-.09-.12.46-.27.25-.26-.5.53-1.48.18-2.26.7-.44.03-.16-.31-.54-.26-.87.56-1.12.2-2.02.83.38.09.4.01-.17.56l1.51-.92-.87.82c.48-.22.93-.65,1.25-.7-.42.38-.38.33-.08.4-.8-.03-1.19.81-2.04.94l-.25-.56c-.63.16-1.11.45-1.59.84-.47.4-.98.83-1.71,1.19l.5-.18c-.06.32-.84.55-1.24.91-.07-.19-.39-.09-.65-.07.11.11-.97.71-.85,1.13l-.74.22c-1.12.72-.87,1.32-1.82,2.13.14-.42-.38-.14.15-.83-.31.28-.62.52-.53.62-.27.08-.68.99-1.1,1.11-.07.18.03.37-.33.68-.07,0-.07-.07-.07-.07.05.06-.42.62.01.47-.65.26-1.25.94-1.82,1.61-.29.33-.57.66-.85.95-.25.3-.51.55-.78.7-.49.78-1.12,1.69-1.57,2.38-.02-.08-.08-.05.02-.18-.74.89.08.89-.75,1.9-.6.42.22-.67-.09-.38-.59-.14-.78,1.37-1.46,2l.06-.21c-.47.52-.51,1.59-1.02,2.56,0,0-.02-.07-.08-.04-.1.78-.44,2.16-.73,3.17-.1-.38.05-.49-.23-.38-.13.45.39,0,.13.89-.21.25-.56.85-.79.87.06-.29.18-.56.27-.85-.47.33-.35,1.1-.51,1.54l-.11-.1c-.29,1.35.03,1.44-.36,2.85l.13-.13c.14.84-.3.62-.19,1.45l-.36.18c.01.54.01,1.87-.01,2.81-.21-.55-.13-1.66-.19-2.37-.08.52-.24,1.77-.12,2.06,0-.21-.04-.48.04-.69.12.66.25,1.51.18,2.55-.61-.21-.32,2.7-.66,3.47.17.92.17,1.84.21,2.8.1.95.19,1.95.38,3.02.33-.84.11.62.55.4.11.49.18.67.15.72l.11,1.53c-.04.38-.22-.44-.31-.37.25,1.08-.07.5,0,1.24.12-.19.33.31.43.94l-.02-.92c.61,1.42.04,1.39.78,2.79l-.31-.42c.18.36.44,1.06.73,1.74.26.69.71,1.3,1.03,1.58.01.15-.01.37-.2.07.41.86.91,1.81,1.5,2.63.59.82,1.13,1.6,1.43,2.29l-.16-.07c.22.28.47.43.66.84-.05,0-.17-.06-.08.08.14.13.72.65.95,1.06l-.34-.25c.51.78,1,1.31,1.48,1.79.52.45,1.05.83,1.59,1.38-.21.18.67,1.37,1.19,1.88h-.05c.8.75,1.53,1.32,2.25,1.87.72.54,1.52.94,2.35,1.5.2.25.51.53.89.84.38.3.86.57,1.34.88.98.59,2.02,1.28,2.91,1.74-.25-.17.14-.16.47-.03.4.25,1.24.39,1.07.58l-.15-.08c.22.35,1.11.75,1.83.98l.23-.24c.85.52,2.06.98,3.2,1.24,1.15.24,2.19.45,2.67.77.47.07,1.05.15,1.53.14l-.05.15c1.3.2,1.94.4,3.56.48l-.34.09c.92.05,1.19-.37,2.02-.34l.24.23c1.59.14,3.21.12,4.77-.13-.02.03-.07.09-.32.12.76.03,2.9-.24,2.59-.45.04.16,1.63-.23,2.45-.47l-.1.16c.67-.34.68-.39,1.64-.68.23-.05.23.04-.09.09.79-.14.57-.27,1.52-.45l-.33.16c.79-.21.73-.2,1.12-.45.47-.22,1.46-.51,1.61-.46.08-.1.47-.33.93-.47.07.01-.08.09-.16.13.66-.2,1.12-.42,1.51-.66.4-.22.75-.42,1.19-.58.03.02.09,0,.17-.02-.98.48-1.76.86-1.69.82.04.09.83-.29.26.14.61-.39,1.62-1.05,2.41-1.4.04-.01.08-.02.12-.02l-.07.05c.18-.08.34-.16.48-.26.24-.13.39-.22.62-.35.12,0,.87-.5,1.25-.73-.08-.06.42-.35-.08-.12.06-.03-.06.05-.31.21-.05.04-.12.08-.15.11l.02-.02c-.24.15-.56.35-.92.58.27-.22.56-.44.99-.66.16-.17.34-.34.45-.44.58-.2,1.58-.77,1.73-.84.52-.42,1.14-.91,1.7-1.37.28-.23.55-.45.78-.65.21-.22.4-.42.53-.59.27-.27.34-.27.46-.35-.15.16-.34.33-.42.43.54-.54,1.64-1.54,1.72-1.71.72-.63-.32.44.59-.5l-.1.15c.9-.92,1.57-1.74,2.26-2.57.64-.88,1.26-1.8,2.16-2.91-.12.16-.18.23-.22.26,1.84-2.68,3.46-5.76,4.53-8.78.32-.85.33-.95.51-1.48l.09-.18c.09-.3.14-.62.22-.93.16-.66.32-1.22.49-1.82.08-.31.17-.62.26-.96.07-.35.11-.73.17-1.15l-.05.21c.1-.61.28-1.92.29-1.82,0-.06.01-.2.06-.44l.02-.02c.09-.5.12-1,.12-1.5.07-1.17.05.19.14-1.52.03-.63.05-1.81.03-1.57-.01.26-.04.65-.06.67l.02-.58c-.04-.11-.07-.55-.17.87l-.02.99-.04.32.04-.83c-.04.47-.04.77-.04,1.1-.01.08-.03.22-.04.41v.97c-.04.11,0-.43-.08.21-.05.45.1-.43,0,.32-.09.47-.08.33-.15.88-.02.08-.01-.04.02-.26-.06.49-.19,1.29-.21,1.55-.04.27-.11.66-.16,1-.07.34-.16.61-.16.58-.04.18-.2.86-.3,1.29.16-.81-.43,1.64-.42,1.42-.08.61-.73,2.09-1.06,3.12.02-.06.05-.17.09-.26-.22.55-.29.73-.44,1.1,0,.09-.41.95-.61,1.42-.36.66.16-.43.02-.23.05-.02-.54,1.18-.4.97-.27.5-.23.44-.39.69,0,.11-.21.49-.44.91-.46.69-.16.15-.62.94-.24.36.16-.34.16-.34Zm-15.47,14.64h0c.17-.08.31-.15.4-.2-.08.04-.2.1-.4.2Zm-1.64.77c.2-.09.45-.21.71-.33.07,0,.03.06-.14.14.08-.06-.32.1-.57.19Zm3.73-1.21c-.24.17-.33.2-.38.21.12-.08.25-.16.43-.28l.02-.03s-.03.06-.07.1Z"/>
      <path class="cls-1" d="m59.19,80.68s.05-.04.1-.07c-.05.03-.11.05-.16.07l-.07.08s.09-.06.13-.08Z"/>
      <path class="cls-1" d="m61.83,16.28l-.03-.03s.04.05.05.07c-.02-.02-.01-.03-.02-.04Z"/>
      <polygon class="cls-1" points="30.73 84.32 30.72 84.36 30.88 84.37 30.73 84.32"/>
      <path class="cls-1" d="m68.79,23.52s.02.06.05.12c0,0-.02-.06-.05-.12Z"/>
      <path class="cls-1" d="m71.32,27.01l.29.54c-.13-.23-.22-.4-.29-.54Z"/>
      <path class="cls-1" d="m73,29.87s.05.04.06.04h0s-.06-.04-.06-.04Z"/>
      <path class="cls-1" d="m28.34,11.96s-.08.03-.12.04c-.26.14-.08.05.12-.04Z"/>
      <path class="cls-1" d="m43.6,9.9c-.17.02-.34.05-.51.05.27.06.48.1.51-.05Z"/>
      <polygon class="cls-1" points="13.88 20.71 13.88 20.71 13.8 20.78 13.88 20.71"/>
      <path class="cls-1" d="m42.37,9.91c.27.07.5.06.72.04-.23-.03-.49-.07-.72-.04Z"/>
      <path class="cls-1" d="m77.29,43.54l.02.16s0,0,0,.02l-.03-.18Z"/>
      <path class="cls-1" d="m77.32,43.72v.18c0-.08,0-.15,0-.18Z"/>
      <path class="cls-1" d="m77.36,44.27l-.03-.37c0,.13.02.29.03.37Z"/>
      <path class="cls-1" d="m76.54,39.2l-.03-.05s.02.04.03.05Z"/>
      <path class="cls-1" d="m76.19,37.91c.08.31.17.78.3,1.21l.02.04c-.08-.2-.21-.96-.32-1.25Z"/>
      <path class="cls-1" d="m74.66,32.51c.14.35.25.71.37,1.07-.04-.19-.1-.45.08.03-.41-1.37.06.29-.45-1.1Z"/>
      <path class="cls-1" d="m73.21,29.32c.27.54.04-.03.07,0-.2-.33-.26-.4-.07,0Z"/>
      <path class="cls-1" d="m55.08,12.09l.14-.16c-.44-.18-.04.07-.14.16Z"/>
      <path class="cls-1" d="m50.18,11.45c.13.08.26.16.39.26l.26-.13c-.21-.06-.43-.11-.65-.13Z"/>
      <polygon class="cls-1" points="47.83 9.13 48.04 9.15 47.25 9.03 47.83 9.13"/>
      <path class="cls-1" d="m8.75,22.6l.33.08c.17-.27-.05-.55-.33-.08Z"/>
      <path class="cls-1" d="m1.07,39.44c-.2.16-.35.67-.27,1.01.08-.41.24-.8.27-1.01Z"/>
      <polygon class="cls-1" points="25.68 84.29 25.31 84.22 25.99 84.41 25.68 84.29"/>
    </g>
    <g>
      <circle class="cls-1" cx="80.68" cy="7.56" r="7.06"/>
      <path class="cls-1" d="m87.79,7.56c.02,6.36-7.76,9.76-12.34,5.22-2.92-2.73-2.97-7.74-.12-10.57,4.65-4.81,12.63-1.2,12.46,5.34h0Zm-.1,0c.02-5.86-7.66-8.71-11.66-4.64-2.62,2.42-2.67,6.89-.12,9.41,4.1,4.34,11.9,1.29,11.78-4.76h0Z"/>
    </g>
  </g>
</svg>